<svg id="Layer_1" enable-background="new 0 0 480 480" viewBox="0 0 480 480" width="250" height="150" fill="#102c48" xmlns="http://www.w3.org/2000/svg"><path d="m372.03 87.56c-.064 101.683-.043 95.36-.096 96.474-.266 5.671-8.804 5.373-8.8-.305l.026-38.31c.036-39.951-32.316-72.019-71.95-72.04-.086 0-101.964-.07-102.05-.07-39.752 0-71.964 32.13-72 71.95l-.027 40.404c-.004 5.535-8.17 6.018-8.788.518-.294-2.617-.21 4.138-.135-101.162.01-17.45 12.86-31.95 29.59-34.56 14.257-30.45 44.98-50.37 79.31-50.37.056.001 117.961-.089 117.98-.089 5.578 0 9.458 5.608 7.48 10.84l-10.96 28.89 5.55 1.61c20.084 5.841 34.87 24.382 34.87 46.22zm-162.053 241.964c-2.877-.723-4.953 2.698-2.97 4.905l27.733 30.861c2.81 3.13 7.71 3.13 10.52 0l27.659-30.782c1.98-2.203-.087-5.621-2.962-4.907-19.071 4.738-39.927 4.965-59.98-.077zm192.053 95.216c-.021-45.388-36.697-82.51-82.65-82.51-.414 0-.826-.008-1.237-.023-3.372-.124-6.326 2.248-7.055 5.543l-13.29 60.121c-1.416 6.406-9.554 8.476-13.855 3.515l-23.526-27.127c-4.295-4.952-12.414-1.865-12.419 4.63l-.03 45.227c-.004 4.595-3.88 8.282-8.539 7.977-4.252-.278-7.465-4.001-7.462-8.262l.031-44.941c.004-6.459-8.095-9.625-12.418-4.653l-23.557 27.089c-4.297 4.941-12.439 2.891-13.851-3.533l-13.185-60.034c-.724-3.296-3.677-5.686-7.049-5.555-.464.018-.93.027-1.399.027-45.604 0-82.529 36.88-82.57 82.51l-.029 47.259c0 4.425 3.577 8 8 8h308.12c4.432 0 8-3.583 8-8zm-125.637-46.481c3.809 4.392 10.997 2.569 12.252-3.108 9.406-42.553 9.418-40.558 8.444-41.427-.701-.626-1.501-.494-1.968.027l-25 27.817c-2.385 2.654-2.421 6.668-.083 9.364zm-66.442-7.332c2.344-2.695 2.311-6.715-.077-9.371l-24.984-27.797c-.949-1.056-2.618-.1-2.332 1.203l8.812 40.123c1.247 5.679 8.432 7.512 12.248 3.125zm81.249-281.547c-.069 0-101.971-.07-102.04-.07-30.878 0-55.958 24.939-56 55.96 0 .239-.046 66.342-.03 66.58.855 58.281 48.286 105.359 106.92 105.38 58.586 0 107.07-47.24 107.07-107.02l.04-64.8c.041-30.866-24.939-56.009-55.96-56.03z"/></svg>